# xmcd
#
# Track frame offsets: 
#        182
#        13305
#        28417
#        40680
#        52005
#        76422
#        90360
#        102127
#        112680
#        126200
#        139830
#        152822
#        165030
#        174982
#        186330
#        199980
#        213055
#        227177
#        240292
#        256372
#
# Disc length: 3580 seconds
#
# Revision: 0
# Processed by: cddbd v1.5PL3 Copyright (c) Steve Scherf et al.
# Submitted via: ExactAudioCopy v0.95a5
#
DISCID=fd0dfa14
DTITLE=三四十年代1 - 世纪歌典第一辑
DYEAR=1999
DGENRE=Blues
TTITLE0=夜上海(周璇)
TTITLE1=夜来香(李香兰)
TTITLE2=初恋女(黄飞然)
TTITLE3=玫瑰玫瑰我爱你(姚莉)
TTITLE4=何日君再来(周璇)
TTITLE5=田园之歌(姚敏)
TTITLE6=陋巷之春(周璇)
TTITLE7=采槟榔(周璇)
TTITLE8=明月千里寄相思(吴莺音)
TTITLE9=莎莎再会吧(白虹)
TTITLE10=侬本痴情(吴莺音)
TTITLE11=春天里(赵丹)
TTITLE12=四季歌(周璇)
TTITLE13=天涯歌女(周璇)
TTITLE14=千里送京娘(李丽华、姚敏)
TTITLE15=疯狂世界(周璇)
TTITLE16=香格里拉(鸥阳飞莺)
TTITLE17=恋之火(白光)
TTITLE18=恨不相逢未嫁时(李香兰)
TTITLE19=青春舞曲(黄飞然)
EXTD=
EXTT0=
EXTT1=
EXTT2=
EXTT3=
EXTT4=
EXTT5=
EXTT6=
EXTT7=
EXTT8=
EXTT9=
EXTT10=
EXTT11=
EXTT12=
EXTT13=
EXTT14=
EXTT15=
EXTT16=
EXTT17=
EXTT18=
EXTT19=
PLAYORDER=
